# xmcd
#
# Track frame offsets: 
#        150
#        37435
#        73202
#        109395
#        165465
#        206415
#        226075
#
# Disc length: 4012 seconds
#
# Revision: 2
# Processed by: cddbd v1.5.2PL0 Copyright (c) Steve Scherf et al.
# Submitted via: ExactAudioCopy v1.3
#
DISCID=620faa07
DTITLE=Royal Concertgebouw Orchestra - RCO 125 anniversary edition - Th
DTITLE=e Radio Legacy, CD 044 [Eduard van Beinum, chief conductor 1945
DTITLE=1959]
DYEAR=2013
DGENRE=Classical
TTITLE0=Ferruccio Busoni: Arreglo del Concierto para clave en Re menor
TTITLE0=, BWV 1052 de Johann Sebastian Bach] (1916), BV B 30 - I. Alle
TTITLE0=gro
TTITLE1=Ferruccio Busoni: Arreglo del Concierto para clave en Re menor
TTITLE1=, BWV 1052 de Johann Sebastian Bach] (1916), BV B 30 - II. Ada
TTITLE1=gio
TTITLE2=Ferruccio Busoni: Arreglo del Concierto para clave en Re menor
TTITLE2=, BWV 1052 de Johann Sebastian Bach] (1916), BV B 30 - III. Al
TTITLE2=legro
TTITLE3=Johannes Brahms: Sinfonía No. 1 en Do menor (1855-1876), op. 6
TTITLE3=8 - I. Un poco sostenuto - Allegro
TTITLE4=Johannes Brahms: Sinfonía No. 1 en Do menor (1855-1876), op. 6
TTITLE4=8 - II. Andante sostenuto
TTITLE5=Johannes Brahms: Sinfonía No. 1 en Do menor (1855-1876), op. 6
TTITLE5=8 - III. Un poco allegretto e grazioso
TTITLE6=Johannes Brahms: Sinfonía No. 1 en Do menor (1855-1876), op. 6
TTITLE6=8 - IV. Adagio. Più andante. Allegro non troppo ma con brio
EXTD=
EXTT0=
EXTT1=
EXTT2=
EXTT3=
EXTT4=
EXTT5=
EXTT6=
PLAYORDER=
